<svg width="161" height="209" viewBox="0 0 161 209" fill="none" xmlns="http://www.w3.org/2000/svg">
<path d="M110.5 50.1193C105.5 74.1193 86.5001 85.1193 78.0001 85.1193C69.5 85.1193 50.2481 64.3029 52 49.1193C53.5 36.1193 67.5 29.1193 67.5 29.1193" stroke="white" stroke-width="4" stroke-linecap="round"/>
<path d="M75.5 17.1193C75.5 17.1193 69.5 18.5613 66 22.6193C62.5 26.6773 62 32.1193 62 32.1193" stroke="white" stroke-width="4" stroke-linecap="round"/>
<path d="M69.5 19.6193C69.5 19.6193 67.5 -1.88072 88.5 2.61928C109.5 7.11928 116.5 36.6193 116.5 36.6193C116.5 36.6193 127.691 41.6193 136 57.1193C144.309 72.6193 143 93.6193 143 93.6193" stroke="white" stroke-width="4" stroke-linecap="round"/>
<path d="M137.5 89.1193C137.5 89.1193 158.5 103.619 158.5 138.619C158.5 173.619 145 206.619 125.5 206.619C106 206.619 92.7159 181.619 95 148.119C96.0455 132.785 107.5 122.119 110.5 113.119C113.5 104.119 112 94.1193 112 94.1193" stroke="white" stroke-width="4" stroke-linecap="round"/>
<path d="M112 93.6193C112 93.6193 113.5 106.119 104.5 113.119C92.1131 122.753 47 120.619 43.5 107.619C41.5386 100.334 46.5001 95.6193 46.5001 95.6193" stroke="white" stroke-width="4" stroke-linecap="round"/>
<path d="M52 59.6193C52 59.6193 44 63.2899 38.5 70.1193C33.9124 75.8157 31.7599 83.1411 31.172 85.4147C31.0631 85.8357 30.719 86.149 30.2922 86.2325C26.5819 86.9586 9.34315 92.0055 4 123.619C-1.99998 159.119 19 177.119 19 177.119" stroke="white" stroke-width="4" stroke-linecap="round"/>
<path d="M103.5 194.119C103.5 194.119 95.2581 195.619 88 194.119C80.7419 192.619 76 188.119 76 188.119M76 188.119C76 188.119 55.4844 164.869 37.5 164.119C31.6827 163.877 27.167 165.854 23.9529 168.112C19.4746 171.259 18.4483 177.275 21.4963 181.821C24.7798 186.719 30.9879 192.674 42.5 195.619C64 201.119 76 188.119 76 188.119Z" stroke="white" stroke-width="4" stroke-linecap="round"/>
<path d="M87 65.1193C87 65.1193 83.5 62.1193 77 62.1193C72.694 62.1193 69.0464 63.4358 67.0745 64.3246C66.3658 64.644 65.527 64.1376 65.5955 63.3634C65.9716 59.1132 67.8288 48.6193 77 48.6193C88.5 48.6193 90 59.6193 90 59.6193" stroke="white" stroke-width="4" stroke-linecap="round"/>
<path d="M71 40.1193H67.8333C65.9924 40.1193 64.5 41.6116 64.5 43.4526V43.4526C64.5 45.7538 66.3655 47.6193 68.6667 47.6193H70.4722C73.7268 47.6193 76.8846 46.5116 79.4261 44.4784L81.7524 42.6174C84.1783 40.6766 87.1926 39.6193 90.2993 39.6193H91.5556C94.0102 39.6193 96 41.6091 96 44.0637V44.0637C96 46.0274 94.4081 47.6193 92.4444 47.6193H89" stroke="white" stroke-width="4" stroke-linecap="round"/>
<path d="M30 129.119C34.6858 115.119 43.5 111.119 43.5 111.119C43.5 111.119 44.5 117.119 72 119.619C99.5 122.119 111 109.619 111 109.619C111 109.619 100 127.119 95.5 141.119C92.3281 150.987 94.5 168.119 94.5 168.119C94.5 168.119 83 156.447 67 157.119C51 157.791 48 166.119 48 166.119C48 166.119 41.9489 164.307 39 164.119C36.2719 163.945 31 164.119 31 164.119C31 164.119 25.3142 143.119 30 129.119Z" fill="white"/>
</svg>
